<svg width="32" height="32" viewBox="0 0 32 32" fill="none" xmlns="http://www.w3.org/2000/svg">
<rect width="32" height="32" rx="6.4" fill="#EBFCFF"/>
<path d="M17.3539 11.3539C18.2632 10.4445 19.7374 10.4445 20.6468 11.3539C21.5561 12.2632 21.5561 13.7374 20.6468 14.6467L18.7681 16.5254C17.7918 17.5017 16.2088 17.5017 15.2325 16.5254L14.8539 16.1467C14.6586 15.9515 14.342 15.9515 14.1468 16.1467C13.9515 16.342 13.9515 16.6586 14.1468 16.8539L14.5254 17.2325C15.8923 18.5994 18.1083 18.5994 19.4752 17.2325L21.3539 15.3539C22.6537 14.054 22.6537 11.9466 21.3539 10.6467C20.054 9.34692 17.9466 9.34692 16.6468 10.6467L15.1468 12.1467C14.9515 12.342 14.9515 12.6586 15.1468 12.8539C15.342 13.0491 15.6586 13.0491 15.8539 12.8539L17.3539 11.3539Z" fill="#05B2C7"/>
<path d="M13.2325 15.4752C14.2088 14.4989 15.7918 14.4989 16.7681 15.4752L17.1467 15.8538C17.342 16.0491 17.6586 16.0491 17.8539 15.8538C18.0491 15.6586 18.0491 15.342 17.8539 15.1467L17.4752 14.7681C16.1083 13.4012 13.8923 13.4012 12.5254 14.7681L10.6467 16.6467C9.34692 17.9466 9.34692 20.054 10.6468 21.3539C11.9466 22.6537 14.054 22.6537 15.3539 21.3539L16.8539 19.8539C17.0491 19.6586 17.0491 19.342 16.8539 19.1467C16.6586 18.9515 16.342 18.9515 16.1467 19.1467L14.6467 20.6467C13.7374 21.5561 12.2632 21.5561 11.3539 20.6467C10.4445 19.7374 10.4445 18.2632 11.3539 17.3539L13.2325 15.4752Z" fill="#05B2C7"/>
</svg>
