<svg width="32" height="32" viewBox="0 0 32 32" fill="none" xmlns="http://www.w3.org/2000/svg">
<rect width="32" height="32" rx="6.4" fill="#FFF5F7"/>
<path fill-rule="evenodd" clip-rule="evenodd" d="M14.9194 10.1967C15.1676 10.3258 15.3878 10.5041 15.5573 10.6853C15.5636 10.6921 15.5697 10.699 15.5757 10.7061C15.9926 11.2048 15.9995 11.8465 15.9238 12.358C15.8568 12.8111 15.7068 13.2713 15.5946 13.6154C15.578 13.6663 15.5623 13.7146 15.5477 13.7601L15.545 13.7683C15.491 13.9272 15.4395 14.0831 15.3902 14.2359C15.7253 14.54 16.0905 14.8395 16.4711 15.1228C16.859 15.4115 17.2576 15.6793 17.6506 15.9154C17.762 15.8168 17.8698 15.7197 17.975 15.6249C18.0726 15.5369 18.168 15.451 18.2621 15.3677C18.8834 14.8176 19.5854 14.2422 20.511 14.4546C20.5202 14.4558 20.5276 14.4569 20.5329 14.4578C20.5641 14.4627 20.593 14.4695 20.6172 14.476C20.6662 14.489 20.7182 14.5068 20.7702 14.5272C20.8749 14.5685 21.0004 14.6292 21.1299 14.7104C21.3802 14.8673 21.6987 15.1347 21.8634 15.5391C22.0339 15.958 21.9802 16.3968 21.8506 16.7461C21.7216 17.0938 21.4948 17.4166 21.2232 17.6225L21.2205 17.6245C20.8817 17.8779 20.4575 17.9346 20.0548 17.9053C19.6467 17.8756 19.1985 17.7538 18.7437 17.5778C18.4288 17.4559 18.1005 17.304 17.7672 17.1287C17.3193 17.4911 16.7932 17.8676 16.1623 18.2076L16.1599 18.2089C15.487 18.5668 14.8333 18.7961 14.2303 18.9557C14.2223 18.993 14.2145 19.0298 14.2066 19.0662C14.0765 19.6664 13.9377 20.1977 13.7092 20.6199C13.4658 21.0698 13.1209 21.3966 12.6108 21.5847C12.6033 21.5874 12.5958 21.59 12.5883 21.5924C12.3474 21.6684 12.0153 21.7286 11.6698 21.717C11.3286 21.7056 10.9189 21.6216 10.5833 21.3519C10.5649 21.3371 10.5475 21.321 10.5314 21.3037C10.3081 21.0649 10.199 20.754 10.1385 20.5108C10.0768 20.2628 10.0501 20.0169 10.0331 19.8608L10.0322 19.8526C10.0248 19.784 10.0316 19.7147 10.0522 19.6489C10.2097 19.1472 10.5572 18.8479 10.9707 18.6627C11.3559 18.4902 11.8317 18.402 12.3038 18.3212C12.3663 18.3105 12.4295 18.2999 12.4935 18.289C12.7753 18.2414 13.0712 18.1914 13.3791 18.1279C13.5658 17.2018 13.8063 16.0104 14.2509 14.5315C13.955 14.2351 13.6866 13.9351 13.4569 13.6394C13.1546 13.2501 12.9062 12.851 12.7569 12.4628C12.6143 12.0922 12.544 11.6832 12.66 11.2931C12.7141 11.0054 12.895 10.72 13.0966 10.5089C13.3149 10.2804 13.6417 10.0506 14.0381 10.0075C14.3666 9.97173 14.6743 10.0692 14.9194 10.1967ZM14.5985 13.4454C14.6142 13.3965 14.6302 13.347 14.6464 13.2971C14.7602 12.9464 14.8809 12.5744 14.9346 12.2117C14.9964 11.7937 14.947 11.5216 14.8164 11.3573C14.7151 11.2513 14.5879 11.1514 14.4579 11.0838C14.3202 11.0122 14.2142 10.9942 14.1462 11.0016C14.0667 11.0102 13.9436 11.07 13.8197 11.1997C13.7622 11.2599 13.7158 11.3239 13.6839 11.3813C13.6682 11.4095 13.6575 11.4335 13.6507 11.4519C13.6443 11.4694 13.6428 11.478 13.6428 11.478C13.6428 11.478 13.6428 11.4781 13.6428 11.478C13.6386 11.5085 13.6316 11.5384 13.6219 11.5676C13.5895 11.6647 13.5865 11.8342 13.6902 12.1037C13.7921 12.3686 13.979 12.6813 14.2468 13.0261C14.3537 13.1639 14.4715 13.304 14.5985 13.4454ZM15.0718 15.287C14.7911 16.2774 14.6056 17.123 14.4567 17.8475C14.8555 17.7179 15.2677 17.5507 15.6892 17.3266C16.1229 17.0928 16.4993 16.8418 16.8362 16.5877C16.5107 16.3811 16.1875 16.1583 15.8741 15.925C15.5998 15.7209 15.3306 15.507 15.0718 15.287ZM13.1529 19.1902C12.9857 19.2204 12.8256 19.2473 12.6736 19.2729C12.6048 19.2844 12.5378 19.2957 12.4724 19.3069C11.9795 19.3913 11.6302 19.4631 11.3794 19.5754C11.1976 19.6567 11.098 19.7453 11.0398 19.8638C11.0552 19.9943 11.0753 20.1343 11.1089 20.2694C11.1489 20.43 11.197 20.5356 11.2409 20.5953C11.3459 20.6659 11.5018 20.7108 11.7034 20.7176C11.916 20.7247 12.1292 20.6871 12.276 20.6422C12.5309 20.5457 12.6931 20.3965 12.8297 20.144C12.9528 19.9165 13.0515 19.6119 13.1529 19.1902ZM18.5861 16.4208C18.7639 16.5052 18.9373 16.5805 19.1047 16.6452C19.5072 16.801 19.8534 16.888 20.1274 16.908C20.4052 16.9282 20.5507 16.876 20.6205 16.8246C20.7193 16.749 20.8407 16.5931 20.913 16.3982C20.9851 16.204 20.9857 16.0352 20.9372 15.9162C20.8829 15.7827 20.7574 15.6571 20.5987 15.5576C20.5237 15.5106 20.4535 15.4773 20.4035 15.4576C20.3912 15.4527 20.3813 15.4492 20.374 15.4467C20.3522 15.4441 20.3306 15.4401 20.3092 15.4346C19.937 15.3394 19.6108 15.5093 18.9249 16.1164C18.8385 16.1929 18.7483 16.2743 18.6538 16.3597C18.6315 16.3798 18.609 16.4002 18.5861 16.4208Z" fill="#F75961"/>
</svg>
